<?xml version="1.0" encoding="UTF-8" standalone="no"?>
<!-- Created with Inkscape (http://www.inkscape.org/) -->

<svg
   width="57.410927mm"
   height="25.61331mm"
   viewBox="0 0 57.410927 25.61331"
   version="1.1"
   id="svg5"
   xml:space="preserve"
   inkscape:version="1.2.2 (732a01da63, 2022-12-09)"
   sodipodi:docname="Cuniculus...svg"
   xmlns:inkscape="http://www.inkscape.org/namespaces/inkscape"
   xmlns:sodipodi="http://sodipodi.sourceforge.net/DTD/sodipodi-0.dtd"
   xmlns="http://www.w3.org/2000/svg"
   xmlns:svg="http://www.w3.org/2000/svg"><sodipodi:namedview
     id="namedview7"
     pagecolor="#ffffff"
     bordercolor="#000000"
     borderopacity="0.25"
     inkscape:showpageshadow="2"
     inkscape:pageopacity="0.0"
     inkscape:pagecheckerboard="0"
     inkscape:deskcolor="#d1d1d1"
     inkscape:document-units="mm"
     showgrid="false"
     inkscape:zoom="1.6819304"
     inkscape:cx="107.91172"
     inkscape:cy="12.188376"
     inkscape:window-width="1920"
     inkscape:window-height="1111"
     inkscape:window-x="-9"
     inkscape:window-y="-9"
     inkscape:window-maximized="1"
     inkscape:current-layer="layer1" /><defs
     id="defs2" /><g
     inkscape:label="Capa 1"
     inkscape:groupmode="layer"
     id="layer1"
     transform="translate(-123.70408,-156.59912)"><path
       style="fill:#000000;stroke-width:0.264583"
       d="m 134.28377,181.9934 -0.66146,-0.20108 0.74314,-0.30107 c 0.40872,-0.16559 1.24216,-0.37494 1.85208,-0.46524 0.60992,-0.0903 1.38676,-0.33796 1.72631,-0.55036 0.79879,-0.49967 2.7158,-4.49584 2.88751,-6.01925 0.0887,-0.78686 0.2759,-1.21701 0.56296,-1.29354 0.27844,-0.0742 0.21625,-0.12548 -0.17639,-0.14535 -0.33355,-0.0169 -1.49903,-0.21506 -2.58993,-0.44039 l -1.98348,-0.4097 -2.70172,1.23848 c -3.22995,1.48061 -4.55012,1.97217 -5.61215,2.08965 -0.43656,0.0483 -1.15367,0.1679 -1.59358,0.2658 -0.62166,0.13835 -0.91131,0.0548 -1.30029,-0.375 -0.49264,-0.54436 -0.49062,-0.56347 0.12952,-1.22357 0.72832,-0.77526 0.50596,-1.44962 -0.56798,-1.72254 -0.35003,-0.089 -0.61394,-0.27815 -0.58647,-0.42045 0.0871,-0.45109 3.3739,-5.24478 4.56303,-6.65501 1.05585,-1.25218 1.64269,-1.59605 3.38608,-1.98412 0.49957,-0.1112 0.55177,-0.0587 0.33831,0.34015 -0.21141,0.39502 -0.11932,0.49826 0.56683,0.63549 1.18656,0.23731 1.22031,0.22363 1.09286,-0.44308 -0.0688,-0.36003 0.1008,-0.87128 0.41699,-1.25677 0.68397,-0.83389 1.25867,-0.53231 2.08478,1.094 0.44755,0.88107 0.59325,1.02088 0.59531,0.57126 0.002,-0.50182 0.14612,-0.59531 0.91575,-0.59531 2.15028,0 7.81022,-1.6467 13.3422,-3.88177 4.19256,-1.69391 6.38283,-2.32338 9.95416,-2.86075 3.14255,-0.47285 5.93096,-0.51113 7.85833,-0.10789 5.32896,1.11493 9.97153,6.94349 8.98846,11.28466 -0.27916,1.23279 -0.12255,1.45262 1.78028,2.49876 l 0.8198,0.45071 -0.002,3.38574 c -0.002,5.23324 -0.53684,6.3318 -3.19868,6.57357 l -1.43006,0.12988 1.10492,-0.51521 c 1.43319,-0.66829 1.67342,-1.17291 1.67222,-3.5127 -0.001,-1.98683 -0.61589,-3.62206 -1.38418,-3.68116 -1.15716,-0.089 -7.08143,-0.0869 -7.08146,0.002 -2e-5,0.06 0.30673,0.63251 0.68168,1.2723 0.63312,1.08034 0.65267,1.20757 0.27432,1.78501 -0.5465,0.83407 -3.39792,3.33435 -4.46055,3.91125 -0.90668,0.49224 -3.7561,0.6515 -4.01989,0.22468 -0.081,-0.13108 0.4775,-0.38519 1.24116,-0.56467 1.7089,-0.40165 2.54303,-0.8139 3.27627,-1.61925 1.35871,-1.49232 1.10498,-2.59441 -0.85152,-3.69859 -1.49585,-0.8442 -2.65554,-2.0347 -2.30066,-2.36177 0.11332,-0.10443 0.9204,-0.31124 1.79353,-0.45957 1.38855,-0.2359 1.65381,-0.21057 2.11667,0.20214 0.65885,0.58748 1.72572,1.1494 1.88322,0.99189 0.065,-0.065 -0.2416,-0.26711 -0.68126,-0.44923 -0.95661,-0.39624 -2.32899,-1.86401 -3.3133,-3.5436 -0.79494,-1.35646 -1.17415,-1.6668 -0.54129,-0.44298 0.22201,0.42933 0.40367,0.84087 0.40367,0.91453 0,0.0737 -0.98227,0.44937 -2.18282,0.83492 -1.76745,0.56762 -2.87691,0.72796 -5.83049,0.84262 -3.36186,0.13051 -3.67737,0.1024 -4.02648,-0.35877 -0.65266,-0.86213 -0.42913,-0.17635 0.28583,0.87694 0.58952,0.86848 0.65488,1.16458 0.48444,2.19456 -0.10836,0.65485 -0.15126,1.78594 -0.0953,2.51355 0.24725,3.21696 0.16009,3.84783 -0.62491,4.52307 -0.62846,0.54057 -1.00622,0.63351 -2.51093,0.61774 l -1.77119,-0.0185 1.37942,-0.47021 c 1.73725,-0.59216 2.19257,-0.97071 2.19257,-1.8228 0,-0.9081 -0.9424,-2.80551 -1.83546,-3.69545 -0.3981,-0.39672 -1.66603,-1.10701 -2.81762,-1.57841 -2.42522,-0.99278 -4.62728,-2.56365 -4.92182,-3.51106 -0.19915,-0.64057 -0.20233,-0.63865 -0.11417,0.0687 0.11501,0.92276 -0.0234,0.91981 -3.10128,-0.0661 -3.18987,-1.02181 -4.72803,-1.03826 -6.18703,-0.0662 -2.04121,1.36003 -6.39447,4.68041 -6.28278,4.7921 0.0612,0.0612 1.2681,-0.7688 2.68208,-1.84436 4.3974,-3.34491 4.51385,-3.41076 6.0318,-3.41076 0.8193,0 2.30533,0.31759 3.71399,0.79375 1.29152,0.43656 2.67605,0.79375 3.07672,0.79375 0.40068,0 0.80928,0.1307 0.90802,0.29045 0.0987,0.15975 0.73083,0.64857 1.40467,1.08628 l 1.22517,0.79582 -0.92604,-0.14579 c -0.50932,-0.0802 -1.75948,-0.20539 -2.77813,-0.27823 -1.5487,-0.11074 -1.65705,-0.0947 -0.66145,0.0982 0.65484,0.12687 1.63711,0.2395 2.18281,0.25028 0.5457,0.0108 0.99219,0.11906 0.99219,0.24061 0,0.5055 -7.79268,7.78779 -8.57313,8.01162 -0.95433,0.2737 -2.39588,0.26514 -3.33312,-0.0198 z m 21.399,-11.09772 c 0.34511,-0.21859 0.21012,-0.82391 -0.18181,-0.81523 -0.435,0.01 -0.89693,0.49045 -0.73027,0.76012 0.21719,0.35142 0.42448,0.36395 0.91208,0.0551 z m 1.49833,-0.30772 c 0.24351,-0.394 -0.0388,-0.60822 -0.5454,-0.41382 -0.23378,0.0897 -0.35095,0.28301 -0.26038,0.42956 0.21446,0.34701 0.58608,0.33975 0.80578,-0.0157 z m 1.64289,-0.44541 c 0.0639,-0.19193 -0.11466,-0.33073 -0.42548,-0.33073 -0.57862,0 -0.92686,0.34552 -0.63868,0.6337 0.26621,0.26621 0.93836,0.0748 1.06416,-0.30297 z m 1.73942,-0.24024 c 0.28067,-0.28067 -0.3537,-0.8664 -0.7667,-0.70792 -0.54618,0.20959 -0.46419,0.88201 0.10754,0.88201 0.26679,0 0.56341,-0.0783 0.65916,-0.17409 z m -18.60673,-0.48737 c 0,-0.21828 -0.17156,-0.39687 -0.38126,-0.39687 -0.44202,0 -0.74041,0.37763 -0.49349,0.62455 0.31622,0.31622 0.87475,0.17084 0.87475,-0.22768 z m 1.13934,-0.0369 c 0.28173,-0.28173 -0.0714,-0.61164 -0.48483,-0.45299 -0.21279,0.0817 -0.32101,0.25505 -0.2405,0.38532 0.17151,0.2775 0.48614,0.30685 0.72533,0.0677 z m 18.84758,-0.11299 c 0.24351,-0.39401 -0.0388,-0.60823 -0.5454,-0.41383 -0.23378,0.0897 -0.35095,0.28301 -0.26038,0.42956 0.21446,0.34701 0.58608,0.33976 0.80578,-0.0157 z m -17.2316,-0.21008 c 0.0774,-0.12522 0.0728,-0.29561 -0.0102,-0.37864 -0.20649,-0.20648 -0.89299,0.078 -0.89299,0.37004 0,0.30232 0.71748,0.30915 0.90323,0.009 z m 7.52874,-0.12739 c 0.34955,-0.42118 0.13352,-0.70326 -0.53857,-0.70326 -0.47402,0 -0.65981,0.53081 -0.30868,0.88194 0.26726,0.26726 0.52168,0.21361 0.84725,-0.17868 z m 3.68194,-0.17454 c 0.0415,-0.10298 0.36888,-0.13112 0.72761,-0.0626 0.35872,0.0686 0.65223,0.003 0.65223,-0.14598 0,-0.14886 0.2298,-0.21056 0.51067,-0.13711 0.32452,0.0849 0.62895,-0.0558 0.83516,-0.38605 0.17847,-0.28577 0.51421,-0.47452 0.7461,-0.41945 0.60201,0.14298 1.27989,-0.34493 0.94479,-0.68003 -0.26989,-0.26988 -2.3872,0.2989 -2.87053,0.77113 -0.12687,0.12396 -0.38272,0.16704 -0.56855,0.0957 -0.18583,-0.0713 -0.41647,-0.002 -0.51254,0.15297 -0.0961,0.15544 -0.44149,0.28262 -0.7676,0.28262 -0.32611,0 -0.7358,0.14287 -0.91042,0.3175 -0.23466,0.23465 -0.39495,0.24005 -0.61433,0.0207 -0.3722,-0.3722 -1.02609,-0.14234 -1.02609,0.3607 0,0.30213 0.2779,0.34161 1.38906,0.19738 0.76399,-0.0992 1.42299,-0.26456 1.46444,-0.36753 z m -18.25553,-0.30003 c 0.0967,-0.50227 -0.50469,-0.80071 -0.99854,-0.4955 -0.48023,0.2968 -0.10937,1.11973 0.45559,1.01093 0.25343,-0.0488 0.49776,-0.28075 0.54295,-0.51543 z m 9.04061,0.0572 c 0.32805,-0.61296 -0.12959,-0.87537 -0.86556,-0.4963 -0.3816,0.19655 -0.41567,0.32492 -0.16604,0.6257 0.42451,0.51151 0.7076,0.476 1.0316,-0.1294 z m -7.26998,-0.0127 c 0.087,-0.14075 0.48764,-0.19002 0.89034,-0.10948 0.9085,0.1817 1.58509,-0.44463 1.00255,-0.9281 -0.27831,-0.23098 -0.55306,-0.22945 -1.12774,0.006 -0.41789,0.1714 -0.93838,0.29348 -1.15666,0.27128 -0.21829,-0.0222 -0.57547,0.0783 -0.79375,0.22323 -0.35278,0.23429 -0.35278,0.29252 0,0.52411 0.50781,0.33336 0.98394,0.33847 1.18526,0.0127 z m 9.34828,-0.34243 c 0.0605,-0.314 -0.0806,-0.45998 -0.44436,-0.45998 -0.60679,0 -0.94281,0.39517 -0.68742,0.8084 0.25751,0.41666 1.03026,0.17877 1.13178,-0.34842 z m 1.74794,0.43775 c 0.64413,-0.24717 0.49603,-0.63315 -0.24294,-0.63315 -0.41158,0 -0.66146,0.14993 -0.66146,0.39688 0,0.42703 0.24233,0.49033 0.9044,0.23627 z m 13.3831,-0.36856 c 0,-0.14552 -0.1786,-0.26459 -0.39688,-0.26459 -0.21828,0 -0.39687,0.11907 -0.39687,0.26459 0,0.14552 0.17859,0.26458 0.39687,0.26458 0.21828,0 0.39688,-0.11906 0.39688,-0.26458 z m -31.90119,-0.41578 c 0.58313,-0.58313 0.51743,-1.17172 -0.13079,-1.17172 -0.84459,0 -1.5701,0.49334 -1.5701,1.06764 0,0.64922 1.0891,0.71587 1.70089,0.10408 z m -1.43631,-0.0605 c 0,-0.37391 0.6205,-0.84667 1.11125,-0.84667 0.55104,0 0.61255,0.28703 0.15875,0.74083 -0.35617,0.35617 -1.27,0.43232 -1.27,0.10584 z m 12.92989,-0.14341 c 0.16208,-0.19529 0.21634,-0.43342 0.12059,-0.52917 -0.2694,-0.2694 -1.35819,-0.20547 -1.54111,0.0905 -0.43688,0.70689 0.86441,1.10875 1.42052,0.43868 z m 21.99511,-0.32843 c 0,-0.23041 -0.14139,-0.3718 -0.31419,-0.3142 -0.4906,0.16354 -0.57197,0.73312 -0.10473,0.73312 0.2304,0 0.41892,-0.18852 0.41892,-0.41892 z m -20.09094,-0.38414 c 0.59968,-0.32094 0.67775,-0.78444 0.13212,-0.78444 -0.7052,0 -1.77003,0.52627 -1.60503,0.79325 0.21115,0.34165 0.82494,0.33797 1.47291,-0.009 z m -5.44135,-0.64853 c 0,-0.57998 -0.58896,-0.79615 -1.16304,-0.42687 -0.56275,0.36201 -0.13922,1.13734 0.56654,1.03712 0.39031,-0.0554 0.5965,-0.26637 0.5965,-0.61025 z m 10.58333,0.29207 c 1.45521,-0.0195 2.84537,0.078 3.08925,0.21656 0.29293,0.16649 0.67878,0.14478 1.13693,-0.064 0.38143,-0.17379 0.97854,-0.31599 1.32691,-0.31599 0.34836,0 0.70697,-0.11906 0.79691,-0.26458 0.0899,-0.14552 0.38865,-0.26458 0.66381,-0.26458 0.27516,0 1.02954,-0.35719 1.6764,-0.79375 0.64686,-0.43657 1.34892,-0.79375 1.56012,-0.79375 0.5941,0 2.0753,-0.80912 2.23286,-1.21972 0.0776,-0.20228 0.30024,-0.36778 0.4947,-0.36778 0.19446,0 0.51975,-0.23727 0.72288,-0.52727 0.20312,-0.29 0.74298,-0.602 1.19969,-0.69335 0.45671,-0.0913 0.96669,-0.33032 1.1333,-0.53106 0.1666,-0.20075 0.4599,-0.36499 0.65177,-0.36499 0.19188,0 0.43049,-0.13207 0.53026,-0.2935 0.12883,-0.20846 -0.15412,-0.2374 -0.97658,-0.0999 -0.63688,0.10649 -1.22935,0.30591 -1.3166,0.44316 -0.21193,0.33337 -1.29707,0.88492 -2.1741,1.10504 -0.39048,0.098 -0.70997,0.29498 -0.70997,0.43773 0,0.14275 -0.13005,0.25954 -0.28899,0.25954 -0.15895,0 -0.59122,0.23772 -0.96059,0.52827 -0.36937,0.29055 -1.13229,0.65233 -1.69538,0.80395 -0.56308,0.15162 -1.02379,0.39015 -1.02379,0.53006 0,0.13992 -0.21431,0.25439 -0.47625,0.25439 -0.26194,0 -0.61583,0.13959 -0.78644,0.31019 -0.34041,0.34042 -1.25505,0.50135 -2.75349,0.48449 -0.53541,-0.006 -1.03654,0.0911 -1.11363,0.21582 -0.0771,0.12474 -0.82966,0.13315 -1.67236,0.0187 -0.84271,-0.11444 -1.96942,-0.10992 -2.50379,0.0101 -0.53438,0.11998 -1.24875,0.17053 -1.5875,0.11234 -0.82211,-0.14122 -1.39872,0.26719 -1.18042,0.83608 0.12811,0.33385 0.33038,0.40207 0.76616,0.25842 0.32565,-0.10736 1.78272,-0.21114 3.23793,-0.23063 z m 11.12338,0.0836 c 0.0959,-0.1552 0.11999,-0.3366 0.0535,-0.4031 -0.18454,-0.18454 -0.9904,0.18081 -0.9904,0.44901 0,0.33121 0.72583,0.29564 0.93692,-0.0459 z m -19.72234,-0.77614 c 0,-0.38806 -0.17639,-0.52917 -0.66146,-0.52917 -0.62256,0 -0.88672,0.48029 -0.48507,0.88194 0.39477,0.39477 1.14653,0.16346 1.14653,-0.35277 z m 21.28043,-0.29457 c -0.20302,-0.32849 -0.84043,-0.29261 -1.05809,0.0596 -0.25814,0.4177 0.45804,0.79338 0.8664,0.45448 0.18517,-0.15369 0.27144,-0.385 0.19169,-0.51404 z m -17.97314,-0.32549 c 0.14552,-0.16829 0.59201,-0.26831 0.99219,-0.22227 0.57468,0.0661 0.72761,-0.0252 0.72761,-0.43471 0,-0.65545 -0.66713,-0.92845 -1.13225,-0.46334 -0.19459,0.19459 -0.88265,0.44139 -1.52901,0.54845 -1.49929,0.24831 -1.66949,0.35888 -1.27818,0.83037 0.3573,0.43052 1.76569,0.2665 2.21964,-0.2585 z m 19.31459,-0.17369 c 0.0899,-0.14552 -0.0221,-0.26459 -0.24897,-0.26459 -0.22687,0 -0.41249,0.11907 -0.41249,0.26459 0,0.14552 0.11203,0.26458 0.24897,0.26458 0.13693,0 0.32255,-0.11906 0.41249,-0.26458 z m -16.27188,-0.75781 c 0,-0.12575 0.56555,-0.21504 1.25677,-0.19843 0.95416,0.0229 1.25677,-0.0654 1.25677,-0.36668 0,-0.4625 -1.86452,-0.67256 -2.13175,-0.24017 -0.10876,0.17597 -0.27118,0.17717 -0.48036,0.004 -0.435,-0.36102 -1.07521,0.0833 -0.87433,0.60677 0.16816,0.43821 0.9729,0.59946 0.9729,0.19494 z m 17.76677,-0.16824 c 0,-0.13824 -0.12799,-0.29401 -0.28442,-0.34616 -0.15644,-0.0521 -0.28443,0.10363 -0.28443,0.34616 0,0.24254 0.12799,0.39831 0.28443,0.34617 0.15643,-0.0522 0.28442,-0.20792 0.28442,-0.34617 z m -12.21052,-0.24451 c 0.65485,-0.0657 1.27992,-0.12686 1.38906,-0.13591 0.10915,-0.009 0.19844,-0.1839 0.19844,-0.38856 0,-0.24108 0.18519,-0.32367 0.52595,-0.23456 0.3336,0.0872 0.58587,-0.0186 0.68977,-0.28935 0.0901,-0.2348 0.37646,-0.4269 0.63637,-0.4269 0.2599,0 0.53754,-0.16936 0.61697,-0.37635 0.0794,-0.20699 0.41026,-0.41535 0.73518,-0.46302 0.32493,-0.0477 0.63978,-0.2355 0.69969,-0.4174 0.15781,-0.47918 -0.97795,-0.41455 -1.16241,0.0661 -0.0838,0.21828 -0.43722,0.39687 -0.78545,0.39687 -0.34823,0 -0.63315,0.11907 -0.63315,0.26459 0,0.14552 -0.2311,0.26458 -0.51355,0.26458 -0.28246,0 -0.57764,0.10368 -0.65595,0.23041 -0.12091,0.19563 -0.64342,0.36421 -2.13779,0.68969 -0.14552,0.0317 -0.71107,0.0758 -1.25677,0.0979 -0.66066,0.0268 -0.99219,0.16555 -0.99219,0.41513 0,0.41924 0.45881,0.6411 1.05833,0.51176 0.21828,-0.0471 0.93266,-0.13937 1.5875,-0.20506 z m 13.7858,-0.7599 c -0.33959,-0.33959 -0.68396,-0.0771 -0.43255,0.32967 0.0974,0.15758 0.29828,0.21159 0.44642,0.12003 0.18071,-0.11168 0.17615,-0.25968 -0.0139,-0.4497 z m -6.90663,-2.83204 c 0,-0.14552 -0.23813,-0.26459 -0.52917,-0.26459 -0.29104,0 -0.52916,0.11907 -0.52916,0.26459 0,0.14552 0.23812,0.26458 0.52916,0.26458 0.29104,0 0.52917,-0.11906 0.52917,-0.26458 z m 1.79468,-1.01446 c 0.079,-0.23984 -0.0773,-0.32465 -0.48772,-0.26458 -0.33223,0.0486 -0.65641,0.24726 -0.72039,0.4414 -0.079,0.23985 0.0773,0.32466 0.48771,0.26459 0.33224,-0.0486 0.65641,-0.24726 0.7204,-0.44141 z m 1.6449,-0.83763 c 0,-0.14552 -0.17859,-0.26458 -0.39687,-0.26458 -0.21828,0 -0.39688,0.11906 -0.39688,0.26458 0,0.14552 0.1786,0.26459 0.39688,0.26459 0.21828,0 0.39687,-0.11907 0.39687,-0.26459 z m 2.13064,-0.66146 c -0.0207,-0.39271 -0.61267,-0.32057 -0.75,0.0914 -0.0742,0.22255 0.0468,0.32173 0.32266,0.26458 0.24273,-0.0503 0.43503,-0.21047 0.42734,-0.356 z m 1.83811,0.1323 c 0,-0.14552 -0.11906,-0.26459 -0.26458,-0.26459 -0.14552,0 -0.26459,0.11907 -0.26459,0.26459 0,0.14552 0.11907,0.26458 0.26459,0.26458 0.14552,0 0.26458,-0.11906 0.26458,-0.26458 z m -43.98698,16.64935 c -0.53505,-0.31371 -0.6331,-1.7163 -0.13229,-1.89229 0.48104,-0.16904 1.59813,0.15765 1.71252,0.50081 0.054,0.16188 -0.17533,0.60227 -0.50955,0.97864 -0.48019,0.54077 -0.70478,0.62737 -1.07068,0.41284 z m 31.21557,-1.50196 c -0.0732,-0.25466 -0.21234,-0.65426 -0.30915,-0.888 -0.15471,-0.37352 0.25006,-0.44372 3.34342,-0.57984 3.41118,-0.1501 5.12475,-0.46595 7.12707,-1.3137 0.9503,-0.40234 0.96849,-0.39816 1.52135,0.34963 0.30776,0.41626 0.55955,0.80551 0.55955,0.86501 0,0.0595 -0.44648,0.1741 -0.99218,0.25469 -0.54571,0.0806 -3.07578,0.51286 -5.6224,0.9606 -5.41674,0.95235 -5.45426,0.9547 -5.62766,0.35161 z m -21.94546,-9.01449 c -0.46966,-0.18639 -0.37405,-0.4766 0.34042,-1.03326 0.36182,-0.2819 0.40114,-0.22135 0.3007,0.46302 -0.0636,0.43304 -0.13181,0.77897 -0.15167,0.76874 -0.0199,-0.0102 -0.24012,-0.0995 -0.48945,-0.1985 z m -4.01628,-0.466 c -0.45566,-1.18743 0.23546,-1.55039 1.39957,-0.73502 l 0.61958,0.43397 -0.85567,0.35978 c -1.04953,0.4413 -0.97006,0.44531 -1.16348,-0.0587 z"
       id="path302" /></g></svg>
